<?xml version="1.0" encoding="UTF-8" standalone="no"?>
<svg
   version="1.0"
   width="755.08649"
   height="848.36206"
   viewBox="0 0 755.08649 848.36206"
   preserveAspectRatio="xMidYMid"
   id="svg5"
   sodipodi:docname="app_icon.svg"
   inkscape:version="1.4.3 (0d15f75, 2025-12-25)"
   xmlns:inkscape="http://www.inkscape.org/namespaces/inkscape"
   xmlns:sodipodi="http://sodipodi.sourceforge.net/DTD/sodipodi-0.dtd"
   xmlns="http://www.w3.org/2000/svg"
   xmlns:svg="http://www.w3.org/2000/svg">
  <defs
     id="defs5" />
  <sodipodi:namedview
     id="namedview5"
     pagecolor="#000000"
     bordercolor="#000000"
     borderopacity="0"
     inkscape:showpageshadow="2"
     inkscape:pageopacity="0.0"
     inkscape:pagecheckerboard="true"
     inkscape:deskcolor="#d1d1d1"
     labelstyle="default"
     inkscape:clip-to-page="false"
     inkscape:zoom="0.28"
     inkscape:cx="339.28571"
     inkscape:cy="541.07143"
     inkscape:window-width="1366"
     inkscape:window-height="697"
     inkscape:window-x="-8"
     inkscape:window-y="-8"
     inkscape:window-maximized="1"
     inkscape:current-layer="svg5" />
  <path
     d="m 336.64039,829.98206 c -95.5,-48.06 -173.01,-110.43005 -226.18,-182.01001 -58.689999,-78.53 -92.639999,-165.85 -106.9599993,-273.02 -4.7,-36.81 -4.7,-119.64 0.2,-160.54 4.29,-37.22 11.0400003,-78.12 13.0900003,-80.17 0.82,-0.82 18,-4.29 38.04,-7.57 65.649999,-11.25 127.199999,-28.629995 180.369999,-51.329995 31.9,-13.7 81.19,-39.27 106.55,-55.42 34.15,-21.6800004 34.36,-21.8800004 40.9,-18.0000004 3.27,1.84 18.2,10.8400004 33.33,20.0400004 89.78,54.4 176.9,86.099995 290.4,105.729995 16.16,2.66 30.27,5.73 31.08,6.54 1.84,1.84 10.63,51.94 13.91,80.17 1.23,10.63 2.86,40.7 3.48,66.46 1.43,65.65 -3.48,112.27 -19.02,174.85 -16.77,67.69 -48.88,136.2 -89.37,189.99 -29.45,39.05996 -79.96,89.56996 -115.95,115.95001 -7.36,5.32 -16.16,12.07 -19.43,14.93 -11.04,9.61 -97.96,59.92 -114.52,66.26 -6.95,2.66 -17.18,5.52 -20.04,5.52 -1.84,0 -19.84,-8.18 -39.88,-18.41 z m 66.67,-79.76005 c 57.06,-29.04 115.55,-73.83 156.24,-119.63996 41.11,-46.22 82.82,-120.86 94.48,-169.13 l 1.23,-5.73 h -59.1 c -44.79,0 -59.51,0.61 -60.94,2.66 -1.23,1.23 -6.95,14.93 -12.68,30.06 -5.93,15.13 -12.27,29.24 -14.11,31.29 -5.32,5.93 -16.77,3.89 -21.27,-3.68 -2.05,-3.48 -8.18,-25.97 -14.11,-50.1 l -10.43,-43.97 2.45,-26.18 c 1.23,-14.32 2.66,-27.4 3.48,-29.24 3.68,-9.41 10.02,7.36 23.31,60.74 4.91,19.02 9.2,34.56 9.82,34.56 0.61,0 4.09,-6.75 7.36,-14.72 4.09,-10.02 7.77,-15.75 11.25,-17.38 3.89,-1.84 22.7,-2.66 74.03,-2.66 63.81,0 68.92,-0.2 69.94,-3.48 2.66,-9.61 7.77,-42.13 10.43,-67.49 3.48,-33.13 3.89,-79.76 1.02,-116.57 -3.48,-42.33 -1.64,-38.45 -20.04,-42.54 -94.89,-20.45 -181.4,-52.76 -255.43,-95.3 -11.45,-6.749995 -21.88,-12.069995 -23.11,-12.069995 -1.23,0 -10.23,4.7 -19.84,10.429995 -70.55,41.51 -154.81,73.83 -245,93.87 -15.539999,3.48 -28.629999,6.54 -29.039999,6.95 -2.66,2.66 -5.52,51.13 -5.52,94.28 0,45.4 0.61,57.88 4.7,84.67 2.66,17.38 6.14,37.63 8.18,44.99 l 3.27,13.5 59.309999,0.41 c 32.72,0.41 60.33,0 61.56,-1.02 1.23,-0.82 5.73,-11.66 9.82,-24.13 11.04,-32.31 14.72,-38.45 24.13,-39.27 5.73,-0.41 8.18,0.41 11.25,4.29 2.25,3.07 8.59,22.9 14.93,47.24 5.93,23.31 11.45,42.74 12.27,43.15 0.82,0.61 6.54,-11.25 12.68,-26.18 7.98,-19.43 12.07,-27.2 14.72,-27.61 3.68,-0.82 3.89,0.41 2.45,18.2 -1.84,24.75 -6.34,56.65 -10.43,75.05 -4.09,18 -9.2,24.95 -18,24.95 -12.47,0 -13.29,-1.84 -27.81,-54.81 -6.34,-22.9 -12.27,-41.31 -13.5,-41.11 -1.02,0.2 -4.29,6.54 -7.16,13.91 l -5.32,13.5 -65.85,0.61 c -54.6,0.41 -65.85,1.02 -65.85,3.27 0,4.91 17.79,47.45 28.43,68.3 35.79,69.53 93.66,132.71996 164.83,180.36996 27.61,18.41 74.64,44.79005 80.37,44.99005 1.64,0 13.5,-5.52 26.59,-12.27005 z"
     id="path3"
     style="opacity:1;fill:#1544a4;fill-opacity:1;paint-order:markers stroke fill" />
  <path
     d="m 319.87039,644.49205 c 0,-4.29 1.84,-24.75 4.09,-45.6 29.86,-285.9 26.38,-262.18 40.7,-291.42 19.43,-39.67 57.06,-65.24 103.07,-70.55 9.2,-1.23 43.76,-2.05 76.69,-2.05 h 59.72 v 5.73 c 0,25.15 -10.63,49.9 -28.63,66.46 -18.41,17.18 -28.22,20.25 -70.76,21.68 -33.54,1.23 -35.38,1.43 -43.36,6.95 -9.61,6.14 -13.91,13.09 -16.77,27.4 -1.23,5.32 -5.73,45.81 -10.23,89.57 -14.11,136.41 -14.72,139.88 -28.84,161.36 -15.13,22.7 -45.81,38.04 -76.69,38.04 h -9 v -7.57 z"
     id="path4"
     style="fill:#a8620f;fill-opacity:1" />
  <path
     d="m 158.72039,312.17205 c 0.61,-13.7 2.25,-19.63 7.36,-30.47 8.38,-17.38 25.56,-33.74 42.54,-40.7 11.86,-4.7 13.09,-4.7 102.05,-5.73 l 89.98,-0.82 -12.27,9.2 c -26.18,19.43 -46.63,47.04 -55.01,74.03 l -3.68,11.25 h -85.89 -86.1 l 1.02,-16.77 z"
     id="path5"
     style="mix-blend-mode:darken;fill:#1544a4;fill-opacity:1" />
  <g
     inkscape:groupmode="layer"
     id="layer1"
     inkscape:label="Layer 1"
     style="opacity:0.141"
     transform="translate(-1067.9544,-243.32774)" />
</svg>
